<?xml version="1.0" encoding="utf-8"?>
<!-- Generator: Adobe Illustrator 16.0.0, SVG Export Plug-In . SVG Version: 6.00 Build 0)  -->
<!DOCTYPE svg PUBLIC "-//W3C//DTD SVG 1.1//EN" "http://www.w3.org/Graphics/SVG/1.1/DTD/svg11.dtd">
<svg version="1.1" id="Layer_1" xmlns="http://www.w3.org/2000/svg" xmlns:xlink="http://www.w3.org/1999/xlink" x="0px" y="0px"
	 width="512px" height="240.633px" viewBox="0 0 512 240.633" enable-background="new 0 0 512 240.633" xml:space="preserve">
<g id="q1Zhnx.tif">
	<g>
		<g>
			<path fill-rule="evenodd" clip-rule="evenodd" fill="#45494B" d="M485.775,202.748c-1.562-13.193-6.699-24.286-17.277-32.332
				c-7.723-5.873-16.622-8.502-26.17-8.529c-12.373-0.032-23.199,4.203-31.954,13.144c-8.751,8.938-11.498,20.343-12.413,32.634
				c-9.938,0.521-19.264,0.83-27.974-3.312c-6.968-3.314-14.132-4.341-21.814-4.324c-68.848,0.158-137.698,0.091-206.548,0.091
				c-2.713,0-5.427,0-8.483,0c-5.48-23.981-19.71-37.965-44.709-38.151c-20.111-0.148-33.865,11.76-42.143,35.023
				c-1.316,0.196-2.836,0.624-4.355,0.62c-10.484-0.028-20.97-0.082-31.453-0.261c-5.002-0.085-7.274-1.715-7.888-6.64
				c-0.758-6.07-0.799-12.237-1.009-18.368c-0.037-1.061,0.308-2.749,1.013-3.116c3.704-1.929,2.951-5.252,2.955-8.333
				c0.024-17.776-0.029-35.555,0.043-53.332c0.016-3.858,0.641-7.716,0.625-11.573C6.2,91.1,7.74,86.308,5.562,81.236
				c-1.089-2.535-1.661-6.755,2.387-9.039c0.858-0.484,1.077-2.405,1.274-3.712c1.897-12.599,3.625-25.223,5.611-37.807
				c1.169-7.412,2.5-14.812,4.158-22.127c1.6-7.055,3.721-8.574,10.892-8.551C89.152,0.192,148.422,0.338,207.69,0.667
				c38.966,0.215,77.93,0.838,116.896,0.967c7.58,0.026,14.318,1.887,20.822,5.422c14.151,7.694,26.339,18.001,37.717,29.191
				c15.919,15.657,31.4,31.76,47.017,47.724c4.731,4.836,10.502,7.773,16.711,10.215c11.627,4.574,23.344,9.004,34.646,14.299
				c9.016,4.225,15.762,11.369,21.188,19.816c4.021,6.26,5.51,12.981,4.864,20.192c-0.337,3.765,0.471,7.009,1.775,10.523
				c1.466,3.948,2.507,8.434,2.201,12.573c-0.496,6.755-2.144,13.438-3.523,20.104c-0.3,1.446-1.213,3.122-2.371,3.972
				C499.895,199.885,493.579,202.688,485.775,202.748z M396.597,86.292c0.232-20.223,0.233-20.223-10.037-33.161
				c-0.425-0.535-0.83-1.098-1.317-1.571c-8.968-8.706-18.476-16.294-31.96-16.094c-9.54,0.142-19.083,0.125-28.625,0.184
				c-0.227,0.001-0.455,0.039-0.681,0.074c-5.512,0.878-8.772,5.323-7.578,10.78c1.995,9.108,4.323,18.144,6.286,27.26
				c1.817,8.448,6.642,14.452,14.416,17.853c7.491,3.277,15.062,6.493,22.85,8.932c9.968,3.121,20.134,5.675,30.323,7.999
				c4.989,1.138,6.058,0.03,6.271-5.169C396.777,97.693,396.597,91.989,396.597,86.292z"/>
			<path fill-rule="evenodd" clip-rule="evenodd" fill="#45494B" d="M55.805,205.9c-0.671-15.645,10.907-34.313,34.025-34.211
				c17.779,0.078,33.668,12.007,33.736,34.598c0.062,20.725-13.64,33.911-33.767,34.347C69.912,241.062,55.681,226.134,55.805,205.9
				z"/>
			<path fill-rule="evenodd" clip-rule="evenodd" fill="#45494B" d="M408.768,205.886c-0.66-15.655,10.908-34.244,33.955-34.201
				c17.05,0.03,33.752,11.959,33.819,34.623c0.063,21.145-15.032,34.248-34.565,34.325
				C422.449,240.71,408.641,225.849,408.768,205.886z"/>
		</g>
	</g>
</g>
</svg>
